<svg width="104" height="104" viewBox="0 0 104 104" fill="none" xmlns="http://www.w3.org/2000/svg">
<circle cx="52" cy="52" r="52" fill="white"/>
<path d="M80 52C80 48.323 79.2758 44.682 77.8686 41.2849C76.4615 37.8877 74.399 34.8011 71.799 32.201C69.1989 29.601 66.1123 27.5385 62.7151 26.1314C59.318 24.7242 55.677 24 52 24L52 52H80Z" fill="#F2DC00"/>
<circle cx="52" cy="52" r="25.5" stroke="#2C2C2C" stroke-width="5"/>
<line x1="46" y1="19.5" x2="58" y2="19.5" stroke="#2C2C2C" stroke-width="5"/>
<path d="M49.9141 54.7852C49.9141 55.4648 50.0234 56.0273 50.2422 56.4727C50.6484 57.293 51.3867 57.7031 52.457 57.7031C53.1133 57.7031 53.6836 57.4805 54.168 57.0352C54.6602 56.582 54.9062 55.9336 54.9062 55.0898C54.9062 53.9727 54.4531 53.2266 53.5469 52.8516C53.0312 52.6406 52.2188 52.5352 51.1094 52.5352V50.1445C52.1953 50.1289 52.9531 50.0234 53.3828 49.8281C54.125 49.5 54.4961 48.8359 54.4961 47.8359C54.4961 47.1875 54.3047 46.6602 53.9219 46.2539C53.5469 45.8477 53.0156 45.6445 52.3281 45.6445C51.5391 45.6445 50.957 45.8945 50.582 46.3945C50.2148 46.8945 50.0391 47.5625 50.0547 48.3984H46.9375C46.9688 47.5547 47.1133 46.7539 47.3711 45.9961C47.6445 45.332 48.0742 44.7188 48.6602 44.1562C49.0977 43.7578 49.6172 43.4531 50.2188 43.2422C50.8203 43.0312 51.5586 42.9258 52.4336 42.9258C54.0586 42.9258 55.3672 43.3477 56.3594 44.1914C57.3594 45.0273 57.8594 46.1523 57.8594 47.5664C57.8594 48.5664 57.5625 49.4102 56.9688 50.0977C56.5938 50.5273 56.2031 50.8203 55.7969 50.9766C56.1016 50.9766 56.5391 51.2383 57.1094 51.7617C57.9609 52.5508 58.3867 53.6289 58.3867 54.9961C58.3867 56.4336 57.8867 57.6992 56.8867 58.793C55.8945 59.8789 54.4219 60.4219 52.4688 60.4219C50.0625 60.4219 48.3906 59.6367 47.4531 58.0664C46.9609 57.2305 46.6875 56.1367 46.6328 54.7852H49.9141Z" fill="#2C2C2C"/>
<line x1="29" y1="51.5" x2="33" y2="51.5" stroke="#2C2C2C"/>
<line x1="71" y1="51.5" x2="75" y2="51.5" stroke="#2C2C2C"/>
<line x1="51.5" y1="29" x2="51.5" y2="33" stroke="#2C2C2C"/>
<line x1="51.5" y1="71" x2="51.5" y2="75" stroke="#2C2C2C"/>
</svg>
