<svg width="104" height="104" viewBox="0 0 104 104" fill="none" xmlns="http://www.w3.org/2000/svg">
<circle cx="52" cy="52" r="52" fill="white"/>
<path d="M33.9565 77.9778L33.5627 78.2858L33.9693 78.8057L34.3597 78.2736L33.9565 77.9778ZM33.9565 77.9778C34.3597 78.2736 34.3598 78.2735 34.3599 78.2733L34.3604 78.2726L34.3624 78.2699L34.3698 78.2597L34.3987 78.2201C34.4241 78.1852 34.4615 78.1336 34.5103 78.066C34.6078 77.9308 34.7505 77.7318 34.9319 77.4755C35.2947 76.963 35.8125 76.2213 36.4336 75.3028C37.6754 73.4664 39.3319 70.921 40.9892 68.0868C42.6456 65.2541 44.3079 62.1243 45.5575 59.1202C46.8022 56.1276 47.6587 53.2107 47.6587 50.8191C47.6587 43.0433 41.355 36.7398 33.5793 36.7398C25.8037 36.7398 19.5 43.0433 19.5 50.8191C19.5 53.2529 20.4065 56.1916 21.7228 59.1922C23.0443 62.2046 24.8021 65.3305 26.5534 68.1541C28.3056 70.9794 30.057 73.511 31.37 75.3358C32.0266 76.2485 32.574 76.985 32.9576 77.4938C33.1494 77.7482 33.3003 77.9457 33.4034 78.0798C33.4549 78.1469 33.4946 78.1981 33.5214 78.2327L33.5519 78.2721L33.5598 78.2822L33.5619 78.2848L33.5624 78.2855C33.5626 78.2857 33.5627 78.2858 33.9565 77.9778Z" fill="white" stroke="#2C2C2C"/>
<circle cx="33.5792" cy="51.4809" r="7.04408" stroke="#2C2C2C"/>
<path d="M70.7983 77.9779L70.4045 78.2859L70.8111 78.8058L71.2015 78.2736L70.7983 77.9779ZM70.7983 77.9779C71.2015 78.2736 71.2016 78.2735 71.2017 78.2733L71.2022 78.2726L71.2042 78.27L71.2116 78.2598L71.2405 78.2202C71.2659 78.1853 71.3033 78.1336 71.3521 78.0661C71.4496 77.9309 71.5923 77.7319 71.7737 77.4756C72.1365 76.9631 72.6543 76.2214 73.2754 75.3029C74.5172 73.4665 76.1737 70.9211 77.831 68.0869C79.4874 65.2542 81.1497 62.1244 82.3993 59.1202C83.644 56.1277 84.5005 53.2108 84.5005 50.8192C84.5005 43.0434 78.1968 36.7399 70.4211 36.7399C62.6455 36.7399 56.3418 43.0434 56.3418 50.8192C56.3418 53.253 57.2483 56.1917 58.5646 59.1923C59.8861 62.2046 61.6439 65.3306 63.3952 68.1542C65.1474 70.9794 66.8988 73.511 68.2118 75.3359C68.8684 76.2486 69.4158 76.9851 69.7994 77.4939C69.9912 77.7483 70.1421 77.9457 70.2452 78.0799C70.2967 78.147 70.3364 78.1982 70.3632 78.2328L70.3937 78.2721L70.4016 78.2822L70.4037 78.2849L70.4042 78.2856C70.4044 78.2858 70.4045 78.2859 70.7983 77.9779Z" fill="white" stroke="#2C2C2C"/>
<circle cx="70.421" cy="51.481" r="7.04408" stroke="#2C2C2C"/>
<path d="M51.6459 77.0332L49.6766 78.5732L51.7096 81.1728L53.6617 78.5119L51.6459 77.0332ZM51.6459 77.0332C53.6617 78.5119 53.6619 78.5116 53.6622 78.5112L53.6631 78.5099L53.6661 78.5059L53.6765 78.4917L53.7148 78.4391C53.7481 78.3934 53.7965 78.3267 53.8591 78.2399C53.9843 78.0663 54.1662 77.8126 54.3968 77.4869C54.8578 76.8356 55.5138 75.8958 56.2999 74.7334C57.8704 72.4108 59.9681 69.1879 62.0697 65.5939C64.1669 62.0074 66.2935 58.0083 67.9026 54.1398C69.4876 50.329 70.6773 46.3986 70.6773 43.0258C70.6773 32.2541 61.945 23.5221 51.1736 23.5221C40.4022 23.5221 31.6699 32.2541 31.6699 43.0258C31.6699 46.4695 32.9334 50.4386 34.6111 54.2631C36.3147 58.1465 38.5653 62.1436 40.7834 65.7199C43.0064 69.3041 45.225 72.5108 46.886 74.8193C47.7173 75.9749 48.4112 76.9084 48.8988 77.5552C49.1427 77.8787 49.3351 78.1306 49.4676 78.3029C49.5338 78.3891 49.5851 78.4554 49.6203 78.5008L49.6609 78.553L49.6719 78.5672L49.6751 78.5712L49.6761 78.5725C49.6764 78.5729 49.6766 78.5732 51.6459 77.0332Z" fill="white" stroke="#2C2C2C" stroke-width="5"/>
<circle cx="51.1737" cy="43.9705" r="11.3358" fill="#F2DC00"/>
<path d="M45.5056 43.0258L50.2289 48.2214L56.8414 40.6642" stroke="#2C2C2C"/>
</svg>
