<svg width="104" height="104" viewBox="0 0 104 104" fill="none" xmlns="http://www.w3.org/2000/svg">
<circle cx="52" cy="52" r="52" fill="white"/>
<circle cx="52" cy="35" r="9.5" stroke="#2C2C2C" stroke-width="5"/>
<circle cx="53" cy="69" r="12" fill="#F2DC00"/>
<path d="M47 68L52 73.5L59 65.5" stroke="#2C2C2C"/>
<path d="M32.5 66.5C32.5 63.8736 33.0173 61.2728 34.0224 58.8463C35.0275 56.4198 36.5007 54.215 38.3579 52.3579C40.215 50.5007 42.4198 49.0275 44.8463 48.0224C47.2728 47.0173 49.8736 46.5 52.5 46.5C55.1264 46.5 57.7272 47.0173 60.1537 48.0224C62.5802 49.0275 64.785 50.5007 66.6421 52.3579C68.4993 54.215 69.9725 56.4198 70.9776 58.8463C71.9827 61.2728 72.5 63.8736 72.5 66.5" stroke="#2C2C2C" stroke-width="5"/>
<path d="M33.5 35C33.5 32.5705 33.9785 30.1649 34.9082 27.9204C35.8379 25.6758 37.2006 23.6364 38.9185 21.9185C40.6364 20.2006 42.6758 18.8379 44.9204 17.9082C47.1649 16.9785 49.5705 16.5 52 16.5C54.4295 16.5 56.8351 16.9785 59.0796 17.9082C61.3242 18.8379 63.3636 20.2006 65.0815 21.9185C66.7994 23.6364 68.1621 25.6758 69.0918 27.9204C70.0215 30.1649 70.5 32.5705 70.5 35" stroke="#2C2C2C"/>
<path d="M33.5 32.5H34.5C36.1569 32.5 37.5 33.8431 37.5 35.5C37.5 37.1569 36.1569 38.5 34.5 38.5H33.5V32.5Z" stroke="#2C2C2C"/>
<path d="M70.5 32.5H69.5C67.8431 32.5 66.5 33.8431 66.5 35.5C66.5 37.1569 67.8431 38.5 69.5 38.5H70.5V32.5Z" stroke="#2C2C2C"/>
</svg>
