<svg width="104" height="104" viewBox="0 0 104 104" fill="none" xmlns="http://www.w3.org/2000/svg">
<circle cx="52" cy="52" r="52" fill="white"/>
<path d="M25 40C25 36.6863 27.6863 34 31 34H73C76.3137 34 79 36.6863 79 40V49H25V40Z" fill="#F2DC00"/>
<rect x="25" y="34" width="54" height="44" rx="6" stroke="#2C2C2C" stroke-width="5"/>
<line x1="69.5" y1="29" x2="69.5" y2="23" stroke="#2C2C2C" stroke-width="5"/>
<line x1="35.5" y1="29" x2="35.5" y2="23" stroke="#2C2C2C" stroke-width="5"/>
<line x1="32" y1="69.5" x2="40" y2="69.5" stroke="#2C2C2C"/>
<line x1="32" y1="64.5" x2="40" y2="64.5" stroke="#2C2C2C"/>
<line x1="48" y1="69.5" x2="56" y2="69.5" stroke="#2C2C2C"/>
<line x1="48" y1="64.5" x2="56" y2="64.5" stroke="#2C2C2C"/>
<line x1="64" y1="69.5" x2="72" y2="69.5" stroke="#2C2C2C"/>
<line x1="64" y1="64.5" x2="72" y2="64.5" stroke="#2C2C2C"/>
<path d="M34.5625 57C34.5859 56.0859 34.7822 55.251 35.1514 54.4951C35.5088 53.6455 36.3525 52.7461 37.6826 51.7969C38.8369 50.9707 39.584 50.3789 39.9238 50.0215C40.4453 49.4648 40.7061 48.8555 40.7061 48.1934C40.7061 47.6543 40.5566 47.2061 40.2578 46.8486C39.959 46.4912 39.5312 46.3125 38.9746 46.3125C38.2129 46.3125 37.6943 46.5967 37.4189 47.165C37.2607 47.4932 37.167 48.0146 37.1377 48.7295H34.7031C34.7441 47.6455 34.9404 46.7695 35.292 46.1016C35.96 44.8301 37.1465 44.1943 38.8516 44.1943C40.1992 44.1943 41.2715 44.5693 42.0684 45.3193C42.8652 46.0635 43.2637 47.0508 43.2637 48.2812C43.2637 49.2246 42.9824 50.0625 42.4199 50.7949C42.0508 51.2812 41.4443 51.8232 40.6006 52.4209L39.5986 53.1328C38.9717 53.5781 38.541 53.9004 38.3066 54.0996C38.0781 54.2988 37.8848 54.5303 37.7266 54.7939H43.29V57H34.5625ZM46.5996 50.751C46.5996 52.2158 46.7198 53.3379 46.96 54.1172C47.2002 54.8906 47.6924 55.2773 48.4366 55.2773C49.1807 55.2773 49.667 54.8906 49.8955 54.1172C50.1299 53.3379 50.2471 52.2158 50.2471 50.751C50.2471 49.2158 50.1299 48.0791 49.8955 47.3408C49.667 46.6025 49.1807 46.2334 48.4366 46.2334C47.6924 46.2334 47.2002 46.6025 46.96 47.3408C46.7198 48.0791 46.5996 49.2158 46.5996 50.751ZM48.4366 44.168C50.0596 44.168 51.1963 44.7393 51.8467 45.8818C52.503 47.0244 52.8311 48.6475 52.8311 50.751C52.8311 52.8545 52.503 54.4746 51.8467 55.6113C51.1963 56.748 50.0596 57.3164 48.4366 57.3164C46.8135 57.3164 45.6739 56.748 45.0176 55.6113C44.3672 54.4746 44.042 52.8545 44.042 50.751C44.042 48.6475 44.3672 47.0244 45.0176 45.8818C45.6739 44.7393 46.8135 44.168 48.4366 44.168ZM54.2071 48.2109V46.5059C54.9981 46.4707 55.5518 46.418 55.8682 46.3477C56.3721 46.2363 56.7823 46.0137 57.0987 45.6797C57.3155 45.4512 57.4796 45.1465 57.5909 44.7656C57.6554 44.5371 57.6876 44.3672 57.6876 44.2559H59.7706V57H57.2042V48.2109H54.2071ZM62.7023 48.2109V46.5059C63.4933 46.4707 64.047 46.418 64.3634 46.3477C64.8673 46.2363 65.2775 46.0137 65.5939 45.6797C65.8107 45.4512 65.9747 45.1465 66.0861 44.7656C66.1505 44.5371 66.1827 44.3672 66.1827 44.2559H68.2657V57H65.6993V48.2109H62.7023Z" fill="#2C2C2C"/>
</svg>
