<svg width="188" height="172" viewBox="0 0 188 172" fill="none" xmlns="http://www.w3.org/2000/svg">
<g clip-path="url(#clip0_1580_15660)">
<path fill-rule="evenodd" clip-rule="evenodd" d="M235.667 172.372C235.667 172.372 166.922 70.2893 131.993 22.4705C103.429 -16.5166 51.3139 0.749105 37.3104 32.4161L36.5146 58.3545C45.1077 74.1084 50.7569 100.206 74.7856 129.725C108.999 171.894 145.678 172.372 235.667 172.372Z" fill="#F2DC00"/>
<path fill-rule="evenodd" clip-rule="evenodd" d="M41.8514 24.2197L0 46.1798L41.8514 70.129V24.2197Z" fill="#2C2C2C"/>
<path d="M70.3302 34.8023C71.2054 28.5167 77.0137 24.061 83.3789 25.0158C89.6646 25.891 94.0407 31.6993 93.1655 38.0645C92.2902 44.3502 86.482 48.7263 80.1167 47.8511C73.8311 46.9758 69.4549 41.088 70.3302 34.8023Z" fill="#2C2C2C"/>
</g>
<defs>
<clipPath id="clip0_1580_15660">
<rect width="188" height="172" fill="white"/>
</clipPath>
</defs>
</svg>
