<svg width="64" height="64" viewBox="0 0 64 64" fill="none" xmlns="http://www.w3.org/2000/svg">
<g clip-path="url(#clip0_1873_14018)">
<circle cx="32" cy="32" r="32" fill="#F2DC00"/>
<path fill-rule="evenodd" clip-rule="evenodd" d="M51.9706 44.2351C51.9706 44.2351 40.3112 26.9214 34.387 18.8111C29.5424 12.1987 20.7034 15.1271 18.3283 20.4979L18.1934 24.8972C19.6508 27.5692 20.6089 31.9954 24.6843 37.002C30.487 44.1542 36.7081 44.2351 51.9706 44.2351Z" fill="white"/>
<path fill-rule="evenodd" clip-rule="evenodd" d="M19.0982 19.1079L12 22.8325L19.0982 26.8944V19.1079Z" fill="#2C2C2C"/>
<path d="M23.9291 20.9027C24.0775 19.8366 25.0626 19.0809 26.1422 19.2428C27.2083 19.3913 27.9505 20.3764 27.802 21.4559C27.6536 22.522 26.6685 23.2642 25.5889 23.1158C24.5228 22.9674 23.7806 21.9687 23.9291 20.9027Z" fill="#2C2C2C"/>
<path d="M40.0533 24.2161C40.9008 23.5078 42.1621 23.6207 42.8704 24.4682L46.3633 28.6476C47.0716 29.4952 46.9588 30.7565 46.1112 31.4648L26.2912 48.0291C26.0344 48.2437 25.7279 48.3904 25.3997 48.4559L19.8221 49.568C18.2697 49.8775 16.99 48.3463 17.5702 46.8735L19.6549 41.582C19.7776 41.2706 19.9764 40.995 20.2332 40.7804L40.0533 24.2161Z" fill="#2C2C2C"/>
<rect x="22.8613" y="38.5833" width="9.44681" height="1.57447" transform="rotate(50.1134 22.8613 38.5833)" fill="white"/>
</g>
<defs>
<clipPath id="clip0_1873_14018">
<rect width="64" height="64" fill="white"/>
</clipPath>
</defs>
</svg>
