<svg width="28" height="28" viewBox="0 0 28 28" fill="none" xmlns="http://www.w3.org/2000/svg">
<mask id="path-1-inside-1_1580_18513" fill="white">
<path fill-rule="evenodd" clip-rule="evenodd" d="M14.2286 6C19.8629 6 24.7353 9.26175 27.0607 14C24.7353 18.7382 19.8629 22 14.2286 22C8.59432 22 3.72186 18.7382 1.39648 14C3.72186 9.26175 8.59432 6 14.2286 6Z"/>
</mask>
<path d="M27.0607 14L27.9584 14.4406L28.1747 14L27.9584 13.5594L27.0607 14ZM1.39648 14L0.498766 13.5594L0.282549 14L0.498766 14.4406L1.39648 14ZM27.9584 13.5594C25.4715 8.4919 20.2588 5 14.2286 5V7C19.467 7 23.9992 10.0316 26.163 14.4406L27.9584 13.5594ZM26.163 13.5594C23.9992 17.9684 19.467 21 14.2286 21V23C20.2588 23 25.4715 19.5081 27.9584 14.4406L26.163 13.5594ZM14.2286 21C8.9902 21 4.45798 17.9684 2.2942 13.5594L0.498766 14.4406C2.98574 19.5081 8.19844 23 14.2286 23V21ZM14.2286 5C8.19844 5 2.98574 8.4919 0.498766 13.5594L2.2942 14.4406C4.45798 10.0316 8.9902 7 14.2286 7V5Z" fill="#2C2C2C" mask="url(#path-1-inside-1_1580_18513)"/>
<circle cx="14" cy="14" r="4.5" stroke="#2C2C2C"/>
</svg>
