<svg width="94" height="69" viewBox="0 0 94 69" fill="none" xmlns="http://www.w3.org/2000/svg">
<path fill-rule="evenodd" clip-rule="evenodd" d="M93.4006 68.3143C93.4006 68.3143 66.1558 27.857 52.3126 8.90549C40.9922 -6.54585 20.3379 0.296885 14.788 12.8471L14.4727 23.127C17.8783 29.3706 20.1171 39.7135 29.6402 51.4124C43.1995 68.1251 57.7364 68.3143 93.4006 68.3143Z" fill="#F2DC00"/>
<path fill-rule="evenodd" clip-rule="evenodd" d="M16.5865 9.59863L0 18.3018L16.5865 27.7934V9.59863Z" fill="#2C2C2C"/>
<path d="M27.8762 13.7929C28.2231 11.3017 30.525 9.53586 33.0477 9.91426C35.5388 10.2611 37.2731 12.5631 36.9263 15.0857C36.5794 17.5769 34.2775 19.3112 31.7548 18.9643C29.2637 18.6175 27.5293 16.284 27.8762 13.7929Z" fill="#2C2C2C"/>
</svg>
