<svg width="20" height="21" viewBox="0 0 20 21" fill="none" xmlns="http://www.w3.org/2000/svg">
<rect x="0.5" y="1" width="19" height="19" rx="9.5" fill="#F2DC00"/>
<rect x="0.5" y="1" width="19" height="19" rx="9.5" stroke="#F2DC00"/>
<path d="M13.1595 11.8265C15.3101 9.54178 15.7704 7.77778 13.5439 5.68006C13.1868 5.35167 12.7425 5.04384 12.338 5.47368L11.1586 7.15179C10.9072 7.68224 11.1252 7.8915 11.4236 8.14534C12.5147 9.07308 12.2393 10.0643 11.5958 10.725L10.6682 11.7105C10.0475 12.3928 9.07498 12.7273 8.08409 11.6933C7.81293 11.4104 7.59101 11.2054 7.07693 11.4882L5.47341 12.7668C5.06883 13.1966 5.4026 13.6218 5.75166 13.9588C7.97801 16.0564 9.71038 15.491 11.861 13.2062L13.1595 11.8265Z" stroke="#2C2C2C"/>
</svg>
