<svg width="21" height="18" viewBox="0 0 21 18" fill="none" xmlns="http://www.w3.org/2000/svg">
<path fill-rule="evenodd" clip-rule="evenodd" d="M18.5292 0.176418C17.719 0.401687 8.56866 3.0491 1.1181 5.18949C0.525042 5.37733 0.0965808 5.85776 0.0125068 6.38581C-0.0715672 6.91387 0.278642 7.36705 0.750275 7.49972C1.15303 7.62288 5.19109 8.78837 5.19109 8.78837L5.31108 15.5509L9.48705 13.0909L6.19159 8.25212L14.4 5.31818L7.49671 9.78178L9.48705 12.7554C9.60379 12.9064 12.0401 16.6163 12.2152 16.8429C12.507 17.2206 12.9529 17.9568 13.2284 17.9949C13.7106 18.0616 14.2978 17.4682 14.6621 16.5067C15.0158 15.6111 17.4128 9.39896 20.4904 1.1222C20.8442 0.226683 20.0118 -0.293169 18.5292 0.176418Z" fill="#6ABFDA"/>
</svg>
