<svg width="80" height="80" viewBox="0 0 80 80" fill="none" xmlns="http://www.w3.org/2000/svg">
<g clip-path="url(#clip0_1559_16659)">
<circle cx="40" cy="40" r="40" fill="#EEEEEE"/>
<circle cx="39.5" cy="29.5" r="9" fill="#F2DC00" stroke="#2C2C2C" stroke-width="3"/>
<path d="M21.5 57C21.5 54.5705 21.9785 52.1649 22.9082 49.9204C23.8379 47.6758 25.2006 45.6364 26.9185 43.9185C28.6364 42.2006 30.6758 40.8379 32.9204 39.9082C35.1649 38.9785 37.5705 38.5 40 38.5C42.4295 38.5 44.8351 38.9785 47.0796 39.9082C49.3242 40.8379 51.3636 42.2006 53.0815 43.9185C54.7994 45.6364 56.1621 47.6758 57.0918 49.9204C58.0215 52.1649 58.5 54.5705 58.5 57" stroke="#2C2C2C" stroke-width="3"/>
</g>
<defs>
<clipPath id="clip0_1559_16659">
<rect width="80" height="80" fill="white"/>
</clipPath>
</defs>
</svg>
