<svg width="18" height="18" viewBox="0 0 18 18" fill="none" xmlns="http://www.w3.org/2000/svg">
<path fill-rule="evenodd" clip-rule="evenodd" d="M9 0C4.02543 0 0 4.0232 0 9C0 10.8769 0.572369 12.613 1.58906 14.1047C1.62691 14.1608 1.65162 14.2247 1.66135 14.2916C1.67109 14.3586 1.66561 14.4269 1.64531 14.4914L0.73125 17.55L3.72656 16.5164C3.79059 16.4951 3.85859 16.4884 3.92553 16.497C3.99247 16.5055 4.05664 16.5289 4.11328 16.5656C5.51628 17.476 7.19585 18 9 18C13.9769 18 18 13.9769 18 9C18 4.02306 13.9769 0 9 0ZM5.31562 3.92344L6.95391 6.63048L6.27187 7.30548C6.20244 7.37554 6.15794 7.46647 6.14524 7.56429C6.13254 7.66211 6.15232 7.7614 6.20156 7.84687C7.24237 9.64927 8.47557 11.0515 10.2023 11.8125C10.2851 11.8493 10.377 11.8602 10.4661 11.8439C10.5551 11.8276 10.6372 11.7848 10.7016 11.7211L11.4258 10.9969L14.0695 12.6492C13.7768 13.3081 13.3951 13.7004 12.9586 13.9289C12.4529 14.1937 11.8353 14.2438 11.1305 14.0977C9.72082 13.8054 8.01807 12.6975 6.63047 11.2781C5.24287 9.8588 4.16906 8.13291 3.89531 6.72889C3.75844 6.02689 3.81891 5.42232 4.07812 4.94298C4.30132 4.53026 4.68045 4.17692 5.31562 3.92344Z" fill="#70C984"/>
</svg>
