<svg width="250" height="163" viewBox="0 0 250 163" fill="none" xmlns="http://www.w3.org/2000/svg">
<path fill-rule="evenodd" clip-rule="evenodd" d="M0 0.00838662C65.0049 0.00838662 131.124 0.80404 182.921 0.00838662C231.297 -0.787267 246.891 55.2267 228.432 84.5068L204.324 99.1468C186.501 100.818 163.825 110.763 125.952 107.422C71.8475 102.568 50.2058 74.5611 0 0.00838662Z" fill="#8CD3F6"/>
<path fill-rule="evenodd" clip-rule="evenodd" d="M233.602 72.8894L238.058 119.992L195.888 100.101L233.602 72.8894Z" fill="#2C2C2C"/>
<path d="M205.599 59.4424C210.293 55.1458 210.691 47.9054 206.394 43.1315C202.098 38.3575 194.857 38.0393 190.083 42.2562C185.389 46.4732 184.991 53.7932 189.208 58.5671C193.584 63.3411 200.825 63.7389 205.599 59.4424Z" fill="#2C2C2C"/>
<path fill-rule="evenodd" clip-rule="evenodd" d="M237.661 162.398C244.186 162.398 249.278 155.555 249.278 149.031C249.278 137.414 241.64 134.63 237.661 117.921C234.24 134.63 224.851 139.244 224.851 149.588C224.851 156.351 231.137 162.398 237.661 162.398Z" fill="#2C2C2C"/>
<path d="M228.903 143.543C230.415 139.645 232.882 137.337 234.473 138.371C236.064 139.406 236.223 143.464 234.712 147.362C233.28 151.261 230.733 153.568 229.142 152.534C227.551 151.5 227.471 147.442 228.903 143.543Z" fill="#8CD3F6"/>
</svg>
