<svg width="236" height="173" viewBox="0 0 236 173" fill="none" xmlns="http://www.w3.org/2000/svg">
<path fill-rule="evenodd" clip-rule="evenodd" d="M235.667 172.372C235.667 172.372 166.923 70.2893 131.993 22.4705C103.429 -16.5166 51.3142 0.749105 37.3107 32.4161L36.515 58.3545C45.108 74.1084 50.7572 100.206 74.7859 129.725C108.999 171.894 145.679 172.372 235.667 172.372Z" fill="#F5B7D4"/>
<path fill-rule="evenodd" clip-rule="evenodd" d="M41.8514 24.2197L0 46.1797L41.8514 70.1289V24.2197Z" fill="#2C2C2C"/>
<path d="M70.3299 34.8024C71.2051 28.5167 77.0135 24.061 83.3787 25.0158C89.6644 25.891 94.0404 31.6993 93.1652 38.0645C92.29 44.3502 86.4817 48.7263 80.1165 47.8511C73.8308 46.9759 69.4547 41.088 70.3299 34.8024Z" fill="#2C2C2C"/>
</svg>
