<svg width="20" height="20" viewBox="0 0 20 20" fill="none" xmlns="http://www.w3.org/2000/svg">
<g clip-path="url(#clip0_1751_7005)">
<rect width="20" height="20" fill="white"/>
<mask id="path-1-inside-1_1751_7005" fill="white">
<path d="M0 0H20V20H0V0Z"/>
</mask>
<path d="M0 0H20V20H0V0Z" fill="white"/>
<path d="M0 0V-1H-1V0H0ZM20 0H21V-1H20V0ZM20 20V21H21V20H20ZM0 20H-1V21H0V20ZM0 1H20V-1H0V1ZM19 0V20H21V0H19ZM20 19H0V21H20V19ZM1 20V0H-1V20H1Z" fill="#2C2C2C" mask="url(#path-1-inside-1_1751_7005)"/>
<path d="M5 6H15" stroke="#2C2C2C"/>
<path d="M10.7793 15.4688L14.4995 12.4375M14.4995 12.4375L10.7793 9.40625M14.4995 12.4375H5.375" stroke="#2C2C2C"/>
</g>
<defs>
<clipPath id="clip0_1751_7005">
<rect width="20" height="20" fill="white"/>
</clipPath>
</defs>
</svg>
