<svg width="16" height="16" viewBox="0 0 16 16" fill="none" xmlns="http://www.w3.org/2000/svg">
<line x1="0.5" y1="8.1875" x2="0.5" y2="12.1875" stroke="#2C2C2C"/>
<line x1="15.5" y1="8.1875" x2="15.5" y2="12.1875" stroke="#2C2C2C"/>
<line x1="12.5" y1="14.6875" x2="3.5" y2="14.6875" stroke="#2C2C2C"/>
<path d="M3.5 14.6875C3.10603 14.6875 2.71593 14.6099 2.35195 14.4591C1.98797 14.3084 1.65726 14.0874 1.37868 13.8088C1.1001 13.5302 0.879125 13.1995 0.728361 12.8356C0.577597 12.4716 0.5 12.0815 0.5 11.6875" stroke="#2C2C2C"/>
<path d="M12.5 14.6875C12.894 14.6875 13.2841 14.6099 13.6481 14.4591C14.012 14.3084 14.3427 14.0874 14.6213 13.8088C14.8999 13.5302 15.1209 13.1995 15.2716 12.8356C15.4224 12.4716 15.5 12.0815 15.5 11.6875" stroke="#2C2C2C"/>
<path d="M12.6875 5.6875L8 10.6875L3.6875 5.6875" stroke="#2C2C2C"/>
<path d="M8 0.375L8 10.1875" stroke="#2C2C2C"/>
</svg>
