<svg width="64" height="64" viewBox="0 0 64 64" fill="none" xmlns="http://www.w3.org/2000/svg">
<circle cx="32" cy="32" r="32" fill="white"/>
<circle cx="32" cy="32" r="31.5" stroke="#3E3E3E" stroke-opacity="0.15"/>
<path d="M20.8963 47.9865L20.5024 48.2945L20.909 48.8144L21.2994 48.2822L20.8963 47.9865ZM20.8963 47.9865C21.2994 48.2822 21.2995 48.2821 21.2996 48.282L21.2999 48.2815L21.3012 48.2798L21.3059 48.2734L21.3239 48.2487L21.393 48.1532C21.4533 48.0696 21.5415 47.9467 21.6535 47.7885C21.8774 47.4721 22.1968 47.0145 22.5799 46.4481C23.3457 45.3156 24.3675 43.7455 25.3901 41.9968C26.4118 40.2495 27.4393 38.3153 28.2129 36.4556C28.9816 34.6075 29.5206 32.784 29.5206 31.2734C29.5206 26.3821 25.5553 22.4169 20.6641 22.4169C15.7729 22.4169 11.8076 26.3821 11.8076 31.2734C11.8076 32.8118 12.3787 34.6499 13.1917 36.5033C14.0099 38.3686 15.0967 40.3007 16.177 42.0425C17.2583 43.7859 18.3387 45.3475 19.1484 46.4729C19.5534 47.0359 19.8912 47.4903 20.128 47.8044C20.2464 47.9614 20.3396 48.0835 20.4034 48.1665C20.4353 48.208 20.4598 48.2397 20.4765 48.2612L20.4956 48.2857L20.5005 48.2921L20.5019 48.2938L20.5022 48.2943C20.5023 48.2944 20.5024 48.2945 20.8963 47.9865Z" fill="white" stroke="#2C2C2C"/>
<circle cx="20.664" cy="31.6807" r="4.14251" stroke="#2C2C2C"/>
<path d="M43.5681 47.9865L43.1743 48.2945L43.5809 48.8144L43.9713 48.2822L43.5681 47.9865ZM43.5681 47.9865C43.9713 48.2822 43.9713 48.2821 43.9714 48.282L43.9718 48.2815L43.973 48.2798L43.9777 48.2734L43.9957 48.2487L44.0649 48.1532C44.1252 48.0696 44.2133 47.9467 44.3253 47.7885C44.5493 47.4721 44.8687 47.0145 45.2518 46.4481C46.0176 45.3156 47.0394 43.7455 48.0619 41.9968C49.0837 40.2495 50.1112 38.3153 50.8847 36.4556C51.6535 34.6075 52.1925 32.784 52.1925 31.2734C52.1925 26.3821 48.2272 22.4169 43.336 22.4169C38.4448 22.4169 34.4795 26.3821 34.4795 31.2734C34.4795 32.8118 35.0505 34.6499 35.8636 36.5033C36.6818 38.3686 37.7686 40.3007 38.8489 42.0425C39.9302 43.7859 41.0106 45.3475 41.8203 46.4729C42.2253 47.0359 42.563 47.4903 42.7998 47.8044C42.9183 47.9614 43.0115 48.0835 43.0753 48.1665C43.1072 48.208 43.1317 48.2397 43.1484 48.2612L43.1674 48.2857L43.1724 48.2921L43.1737 48.2938L43.1741 48.2943C43.1742 48.2944 43.1743 48.2945 43.5681 47.9865Z" fill="white" stroke="#2C2C2C"/>
<circle cx="43.3359" cy="31.6807" r="4.14251" stroke="#2C2C2C"/>
<path d="M31.7818 47.405L30.6002 48.3291L31.82 49.8888L32.9913 48.2923L31.7818 47.405ZM31.7818 47.405C32.9913 48.2923 32.9914 48.2921 32.9916 48.2919L32.9921 48.2911L32.994 48.2886L33.0003 48.2799L33.0239 48.2476C33.0443 48.2195 33.0741 48.1785 33.1126 48.1251C33.1896 48.0184 33.3014 47.8624 33.4432 47.662C33.7268 47.2614 34.1304 46.6833 34.6139 45.9682C35.5801 44.5395 36.8705 42.5568 38.1633 40.3461C39.4534 38.1398 40.7611 35.6805 41.7504 33.302C42.7253 30.9583 43.455 28.5452 43.455 26.4774C43.455 19.87 38.0984 14.5136 31.4912 14.5136C24.8839 14.5136 19.5273 19.87 19.5273 26.4774C19.5273 28.5885 20.3022 31.0251 21.3341 33.3772C22.3815 35.7648 23.7654 38.2228 25.1299 40.4228C26.4972 42.6275 27.8621 44.6001 28.8838 46.0202C29.3952 46.7311 29.822 47.3053 30.122 47.7031C30.272 47.9021 30.3903 48.057 30.4718 48.163C30.5125 48.216 30.544 48.2567 30.5656 48.2846L30.5906 48.3167L30.5974 48.3254L30.5993 48.3279L30.5999 48.3286C30.6001 48.3289 30.6002 48.3291 31.7818 47.405Z" fill="white" stroke="#2C2C2C" stroke-width="3"/>
<circle cx="31.4915" cy="27.0588" r="6.97587" fill="#F2DC00"/>
<path d="M28.0039 26.4775L30.9105 29.6748L34.9798 25.0242" stroke="#2C2C2C"/>
</svg>
