<svg width="64" height="64" viewBox="0 0 64 64" fill="none" xmlns="http://www.w3.org/2000/svg">
<circle cx="32" cy="32" r="32" fill="white"/>
<circle cx="32" cy="32" r="31.5" stroke="#3E3E3E" stroke-opacity="0.15"/>
<circle cx="31.9998" cy="21.5384" r="5.88462" stroke="#2C2C2C" stroke-width="3"/>
<circle cx="32.6161" cy="42.4615" r="6.88462" fill="#F2DC00" stroke="#2C2C2C"/>
<path d="M28.9238 41.8461L32.0008 45.2307L36.3084 40.3076" stroke="#2C2C2C"/>
<path d="M19.9619 40.9231C19.9619 39.3017 20.2813 37.6963 20.9017 36.1984C21.5222 34.7005 22.4316 33.3395 23.578 32.193C24.7245 31.0466 26.0855 30.1372 27.5834 29.5167C29.0813 28.8962 30.6867 28.5769 32.3081 28.5769C33.9294 28.5769 35.5348 28.8962 37.0327 29.5167C38.5306 30.1372 39.8917 31.0466 41.0381 32.193C42.1846 33.3395 43.094 34.7005 43.7144 36.1984C44.3349 37.6963 44.6542 39.3017 44.6542 40.9231" stroke="#2C2C2C" stroke-width="3"/>
</svg>
