<svg width="64" height="64" viewBox="0 0 64 64" fill="none" xmlns="http://www.w3.org/2000/svg">
<circle cx="32" cy="32" r="32" fill="#F2DC00"/>
<path fill-rule="evenodd" clip-rule="evenodd" d="M50.9706 46.2351C50.9706 46.2351 39.3112 28.9214 33.387 20.8111C28.5424 14.1987 19.7034 17.1271 17.3283 22.4979L17.1934 26.8972C18.6508 29.5692 19.6089 33.9954 23.6843 39.002C29.487 46.1542 35.7081 46.2351 50.9706 46.2351Z" fill="white"/>
<path fill-rule="evenodd" clip-rule="evenodd" d="M18.0982 21.1079L11 24.8325L18.0982 28.8944V21.1079Z" fill="#2C2C2C"/>
<path d="M22.9291 22.9027C23.0775 21.8366 24.0626 21.0809 25.1422 21.2428C26.2083 21.3913 26.9505 22.3764 26.802 23.4559C26.6536 24.522 25.6685 25.2642 24.5889 25.1158C23.5228 24.9674 22.7806 23.9687 22.9291 22.9027Z" fill="#2C2C2C"/>
</svg>
